<svg width="89.786301" height="89.976501" viewBox="0 0 89.7863 89.9765" fill="none" xmlns="http://www.w3.org/2000/svg" xmlns:xlink="http://www.w3.org/1999/xlink">
	<desc>
			Created with Pixso.
	</desc>
	<defs>
		<radialGradient gradientTransform="translate(44.9882 44.9882) rotate(0) scale(26.25 26.25)" cx="0.000000" cy="0.000000" r="1.000000" id="paint_angular_4_64_0" gradientUnits="userSpaceOnUse">
			<stop stop-color="#FFFFFF" stop-opacity="0.000000"/>
			<stop offset="1.000000" stop-color="#512DE4"/>
		</radialGradient>
	</defs>
	<path id="Ellipse 4" d="M89.76 40.49C88.71 29.88 83.96 20.35 76.82 13.2C68.07 4.41 56.57 0.02 45.06 0C32.66 -0.04 21.41 4.97 13.26 13.09C4.46 21.82 0.04 33.32 0 44.82C-0.06 57.22 4.93 68.48 13.03 76.65C21.75 85.47 33.24 89.91 44.74 89.97C57.14 90.05 68.41 85.08 76.6 76.99C84.28 69.42 88.65 59.76 89.72 49.8C89.99 47.33 87.97 45.29 85.48 45.27C83 45.26 81 47.26 80.67 49.73C79.6 57.85 75.82 65.11 70.27 70.59C63.22 77.57 53.99 81.02 44.79 80.97C34.87 80.93 25.9 76.86 19.42 70.32C12.43 63.28 8.96 54.06 8.99 44.85C9.02 34.93 13.08 25.96 19.6 19.46C26.63 12.46 35.84 8.98 45.05 8.99C54.97 9 63.95 13.04 70.46 19.56C76.33 25.43 79.74 32.84 80.7 40.5C81.01 42.96 83 44.98 85.48 44.98L85.48 44.98C87.97 44.98 90.01 42.96 89.76 40.49Z" fill="url(#paint_angular_4_64_0)" fill-opacity="1.000000" fill-rule="evenodd"/>
</svg>
